<svg width="45" height="45" viewBox="0 0 45 45" fill="none" xmlns="http://www.w3.org/2000/svg">
<path d="M0 22.5005C0 34.9279 10.0728 45.0004 22.4996 45C34.9272 45.0004 45 34.9279 45 22.5005C45.0008 10.0731 34.9272 0 22.4996 0C10.0728 0 0 10.0735 0 22.5005Z" fill="#FA6E51"/>
<path d="M44.9467 23.9755L34.4499 13.4787H34.4498L29.0247 8.05368C28.969 7.99778 28.9022 7.95331 28.8283 7.92237C28.7547 7.89161 28.6751 7.875 28.5937 7.875H17.625C17.2885 7.875 17.0156 8.1479 17.0156 8.48435V11.5312H10.3125C9.97603 11.5312 9.70312 11.8041 9.70312 12.1406V36.5156C9.70312 36.7218 9.81237 36.8953 9.96917 37.0055C10.0099 37.0633 17.2425 44.2959 17.3003 44.3366C17.3194 44.3638 17.3465 44.3824 17.3691 44.4054C19.0178 44.7901 20.7338 45 22.4996 44.9999C34.4312 45.0004 44.1863 35.7144 44.9467 23.9755Z" fill="#E8573F"/>
<path d="M34.9538 22.9806C34.9236 22.9351 34.8801 22.8941 34.8255 22.8597L28.8735 19.11C28.819 19.0756 28.7539 19.0482 28.6816 19.0292C28.6097 19.0102 28.5319 19 28.4524 19H17.7381C17.4094 19 17.1429 19.1679 17.1429 19.375V21.25H10.5952C10.2665 21.25 10 21.4179 10 21.625V36.625C10 36.8321 10.2665 37 10.5952 37H27.2619C27.5906 37 27.8571 36.8321 27.8571 36.625V34.75H34.4048C34.7335 34.75 35 34.5822 35 34.3751V23.125C35.0001 23.0749 34.9839 23.0259 34.9538 22.9806ZM29.0477 20.2802L32.968 22.75H29.0477V20.2802ZM26.6667 36.25H11.1905V22H20.7143V25.375C20.7143 25.5821 20.9808 25.75 21.3095 25.75H26.6667V36.25V36.25ZM25.8251 25H21.9048V22.5302L25.8251 25ZM27.8572 34V25.375C27.8572 25.325 27.841 25.276 27.8109 25.2306C27.7807 25.1851 27.7372 25.1441 27.6827 25.1097L21.7306 21.36C21.6761 21.3256 21.611 21.2982 21.5388 21.2792C21.4668 21.2602 21.389 21.25 21.3095 21.25H18.3333V19.75H27.8572V23.125C27.8572 23.3321 28.1237 23.5 28.4524 23.5H33.8096V34H27.8572Z" fill="#F4F6F9"/>
</svg>
